<svg width="29" height="38" viewBox="0 0 29 38" fill="none" xmlns="http://www.w3.org/2000/svg">
<path opacity="0.5" d="M14.5 0C8.45833 0 3.625 4.75 3.625 10.6875V15.4375C1.57083 15.4375 0 16.9813 0 19V34.4375C0 36.4562 1.57083 38 3.625 38H25.375C27.4292 38 29 36.4562 29 34.4375V19C29 16.9813 27.4292 15.4375 25.375 15.4375V10.6875C25.375 4.75 20.5417 0 14.5 0ZM26.5833 19V34.4375C26.5833 35.15 26.1 35.625 25.375 35.625H3.625C2.9 35.625 2.41667 35.15 2.41667 34.4375V19C2.41667 18.2875 2.9 17.8125 3.625 17.8125H4.83333H24.1667H25.375C26.1 17.8125 26.5833 18.2875 26.5833 19ZM6.04167 15.4375V10.6875C6.04167 6.05625 9.7875 2.375 14.5 2.375C19.2125 2.375 22.9583 6.05625 22.9583 10.6875V15.4375H6.04167Z" fill="black" fill-opacity="0.25"/>
</svg>
