<svg width="36" height="28" viewBox="0 0 36 28" fill="none" xmlns="http://www.w3.org/2000/svg">
<path d="M31.5732 0H4.4268C3.25313 0.00123526 2.12789 0.45507 1.29798 1.26193C0.468072 2.06879 0.00127055 3.16276 0 4.30383V23.6962C0.00127055 24.8372 0.468072 25.9312 1.29798 26.7381C2.12789 27.5449 3.25313 27.9988 4.4268 28H31.5732C32.7469 27.9988 33.8721 27.5449 34.702 26.7381C35.5319 25.9312 35.9987 24.8372 36 23.6962V4.30383C35.9987 3.16276 35.5319 2.06879 34.702 1.26193C33.8721 0.45507 32.7469 0.00123526 31.5732 0ZM4.4268 2.33333H31.5732C32.1105 2.33395 32.6257 2.54175 33.0057 2.91116C33.3856 3.28057 33.5994 3.78141 33.6 4.30383V5.19633L18 14.9462L2.4 5.19633V4.30383C2.40064 3.78141 2.61438 3.28057 2.99434 2.91116C3.3743 2.54175 3.88945 2.33395 4.4268 2.33333ZM31.5732 25.6667H4.4268C3.88945 25.666 3.3743 25.4582 2.99434 25.0888C2.61438 24.7194 2.40064 24.2186 2.4 23.6962V7.97067L17.3508 17.3145C17.5444 17.4356 17.7698 17.5 18 17.5C18.2302 17.5 18.4556 17.4356 18.6492 17.3145L33.6 7.97067V23.6962C33.5994 24.2186 33.3856 24.7194 33.0057 25.0888C32.6257 25.4582 32.1105 25.666 31.5732 25.6667Z" fill="black" fill-opacity="0.25"/>
</svg>
